<?xml version="1.0" encoding="UTF-8"?>
<svg xmlns="http://www.w3.org/2000/svg" xmlns:xlink="http://www.w3.org/1999/xlink" viewBox="0 0 24 24" version="1.1" width="24px" height="24px">
<g id="surface1">
<path style=" " d="M 5 0 L 5 4 L 7 4 L 7 0 Z M 17 0 L 17 4 L 19 4 L 19 0 Z M 1 3 C 0.449219 3 0 3.449219 0 4 L 0 7 C 0 7.550781 0.449219 8 1 8 L 1 24 L 23 24 L 23 8 C 23.550781 8 24 7.550781 24 7 L 24 4 C 24 3.449219 23.550781 3 23 3 L 20 3 L 20 5 L 16 5 L 16 3 L 8 3 L 8 5 L 4 5 L 4 3 Z M 3 8 L 21 8 L 21 22 L 3 22 Z M 5 10 L 5 12 L 7 12 L 7 10 Z M 9 10 L 9 12 L 11 12 L 11 10 Z M 13 10 L 13 12 L 15 12 L 15 10 Z M 17 10 L 17 12 L 19 12 L 19 10 Z M 5 14 L 5 16 L 7 16 L 7 14 Z M 9 14 L 9 16 L 11 16 L 11 14 Z M 13 14 L 13 16 L 15 16 L 15 14 Z M 17 14 L 17 16 L 19 16 L 19 14 Z M 5 18 L 5 20 L 7 20 L 7 18 Z M 9 18 L 9 20 L 11 20 L 11 18 Z M 13 18 L 13 20 L 15 20 L 15 18 Z M 17 18 L 17 20 L 19 20 L 19 18 Z "/>
</g>
</svg>
